<svg xmlns="http://www.w3.org/2000/svg" xmlns:xlink="http://www.w3.org/1999/xlink" width="500" zoomAndPan="magnify" viewBox="0 0 375 374.999991" height="500" preserveAspectRatio="xMidYMid meet" version="1.0"><defs><g/><clipPath id="3307b69fae"><path d="M 44 63.503906 L 347.863281 63.503906 L 347.863281 368 L 44 368 Z M 44 63.503906 " clip-rule="nonzero"/></clipPath><clipPath id="af0a9fab2e"><path d="M 44 63.503906 L 197 63.503906 L 197 368 L 44 368 Z M 44 63.503906 " clip-rule="nonzero"/></clipPath></defs><g clip-path="url(#3307b69fae)"><path fill="#ffc44d" d="M 54.691406 62.792969 C 51.644531 62.792969 48.746094 64.101562 46.730469 66.386719 C 44.710938 68.671875 43.773438 71.710938 44.152344 74.734375 L 72.476562 301.335938 C 72.917969 304.863281 75.089844 307.933594 78.265625 309.519531 L 191.570312 366.171875 C 194.558594 367.667969 198.082031 367.667969 201.070312 366.171875 L 314.371094 309.519531 C 317.550781 307.933594 319.722656 304.863281 320.164062 301.335938 L 348.488281 74.734375 C 348.867188 71.710938 347.925781 68.671875 345.910156 66.386719 C 343.894531 64.101562 340.996094 62.792969 337.949219 62.792969 Z M 54.691406 62.792969 " fill-opacity="1" fill-rule="nonzero"/></g><g clip-path="url(#af0a9fab2e)"><path fill="#e5b045" d="M 196.320312 62.792969 L 196.320312 367.292969 C 194.691406 367.292969 193.066406 366.921875 191.570312 366.171875 L 78.265625 309.519531 C 75.089844 307.933594 72.917969 304.863281 72.476562 301.335938 L 44.152344 74.734375 C 43.773438 71.710938 44.710938 68.671875 46.730469 66.386719 C 48.746094 64.101562 51.644531 62.792969 54.691406 62.792969 Z M 196.320312 62.792969 " fill-opacity="1" fill-rule="evenodd"/></g><path fill="#eceff1" d="M 103.5 108.742188 C 105.511719 106.539062 108.359375 105.28125 111.34375 105.28125 L 281.296875 105.28125 C 287.164062 105.28125 291.917969 110.039062 291.917969 115.90625 C 291.917969 121.769531 287.164062 126.527344 281.296875 126.527344 L 122.976562 126.527344 L 128.125 183.175781 L 281.296875 183.175781 C 284.445312 183.175781 287.433594 184.574219 289.453125 186.992188 C 291.46875 189.410156 292.3125 192.601562 291.746094 195.699219 L 277.585938 273.59375 C 277.039062 276.605469 275.222656 279.230469 272.597656 280.804688 L 201.785156 323.292969 C 198.421875 325.308594 194.21875 325.308594 190.855469 323.292969 L 120.039062 280.804688 C 117.132812 279.058594 115.234375 276.03125 114.925781 272.65625 L 100.765625 116.867188 C 100.496094 113.894531 101.488281 110.945312 103.5 108.742188 Z M 130.054688 204.421875 L 135.597656 265.363281 L 196.320312 301.796875 L 257.542969 265.0625 L 268.570312 204.421875 Z M 130.054688 204.421875 " fill-opacity="1" fill-rule="evenodd"/><path fill="#cfd8dc" d="M 196.320312 126.527344 L 122.976562 126.527344 L 128.125 183.175781 L 196.320312 183.175781 L 196.320312 204.421875 L 130.054688 204.421875 L 135.597656 265.363281 L 196.320312 301.796875 L 196.320312 324.804688 C 194.425781 324.804688 192.535156 324.300781 190.855469 323.292969 L 120.039062 280.804688 C 117.132812 279.058594 115.234375 276.03125 114.925781 272.65625 L 107.847656 194.761719 L 100.765625 116.867188 C 100.496094 113.894531 101.488281 110.945312 103.5 108.742188 C 105.511719 106.539062 108.359375 105.28125 111.34375 105.28125 L 196.320312 105.28125 Z M 196.320312 126.527344 " fill-opacity="1" fill-rule="evenodd"/><g fill="#000000" fill-opacity="1"><g transform="translate(99.396113, 48.476231)"><g><path d="M 0.46875 6.4375 C -0.582031 6.4375 -1.5 6.328125 -2.28125 6.109375 L -2.28125 2.25 C -1.476562 2.445312 -0.75 2.546875 -0.09375 2.546875 C 0.925781 2.546875 1.65625 2.226562 2.09375 1.59375 C 2.53125 0.957031 2.75 -0.03125 2.75 -1.375 L 2.75 -21.890625 L 7.390625 -21.890625 L 7.390625 -1.40625 C 7.390625 1.144531 6.804688 3.085938 5.640625 4.421875 C 4.472656 5.765625 2.75 6.4375 0.46875 6.4375 Z M 0.46875 6.4375 "/></g></g></g><g fill="#000000" fill-opacity="1"><g transform="translate(109.545693, 48.476231)"><g><path d="M 16.15625 0 L 14.5625 -5.203125 L 6.59375 -5.203125 L 5 0 L 0 0 L 7.71875 -21.96875 L 13.390625 -21.96875 L 21.15625 0 Z M 13.453125 -9.09375 C 11.984375 -13.820312 11.15625 -16.492188 10.96875 -17.109375 C 10.789062 -17.722656 10.660156 -18.210938 10.578125 -18.578125 C 10.253906 -17.296875 9.3125 -14.132812 7.75 -9.09375 Z M 13.453125 -9.09375 "/></g></g></g><g fill="#000000" fill-opacity="1"><g transform="translate(130.698145, 48.476231)"><g><path d="M 15.234375 -21.890625 L 19.921875 -21.890625 L 12.484375 0 L 7.421875 0 L 0 -21.890625 L 4.6875 -21.890625 L 8.796875 -8.859375 C 9.023438 -8.085938 9.257812 -7.191406 9.5 -6.171875 C 9.75 -5.148438 9.90625 -4.441406 9.96875 -4.046875 C 10.082031 -4.960938 10.457031 -6.566406 11.09375 -8.859375 Z M 15.234375 -21.890625 "/></g></g></g><g fill="#000000" fill-opacity="1"><g transform="translate(150.623066, 48.476231)"><g><path d="M 16.15625 0 L 14.5625 -5.203125 L 6.59375 -5.203125 L 5 0 L 0 0 L 7.71875 -21.96875 L 13.390625 -21.96875 L 21.15625 0 Z M 13.453125 -9.09375 C 11.984375 -13.820312 11.15625 -16.492188 10.96875 -17.109375 C 10.789062 -17.722656 10.660156 -18.210938 10.578125 -18.578125 C 10.253906 -17.296875 9.3125 -14.132812 7.75 -9.09375 Z M 13.453125 -9.09375 "/></g></g></g><g fill="#000000" fill-opacity="1"><g transform="translate(171.775517, 48.476231)"><g><path d="M 15.671875 -6.078125 C 15.671875 -4.097656 14.957031 -2.539062 13.53125 -1.40625 C 12.113281 -0.269531 10.140625 0.296875 7.609375 0.296875 C 5.265625 0.296875 3.195312 -0.140625 1.40625 -1.015625 L 1.40625 -5.328125 C 2.882812 -4.671875 4.132812 -4.207031 5.15625 -3.9375 C 6.175781 -3.664062 7.113281 -3.53125 7.96875 -3.53125 C 8.976562 -3.53125 9.753906 -3.722656 10.296875 -4.109375 C 10.847656 -4.503906 11.125 -5.085938 11.125 -5.859375 C 11.125 -6.285156 11.003906 -6.664062 10.765625 -7 C 10.523438 -7.332031 10.171875 -7.648438 9.703125 -7.953125 C 9.242188 -8.265625 8.300781 -8.765625 6.875 -9.453125 C 5.53125 -10.078125 4.523438 -10.675781 3.859375 -11.25 C 3.191406 -11.832031 2.65625 -12.507812 2.25 -13.28125 C 1.851562 -14.050781 1.65625 -14.945312 1.65625 -15.96875 C 1.65625 -17.90625 2.3125 -19.425781 3.625 -20.53125 C 4.9375 -21.644531 6.753906 -22.203125 9.078125 -22.203125 C 10.210938 -22.203125 11.296875 -22.066406 12.328125 -21.796875 C 13.359375 -21.523438 14.4375 -21.144531 15.5625 -20.65625 L 14.078125 -17.046875 C 12.898438 -17.523438 11.929688 -17.859375 11.171875 -18.046875 C 10.410156 -18.242188 9.660156 -18.34375 8.921875 -18.34375 C 8.046875 -18.34375 7.375 -18.132812 6.90625 -17.71875 C 6.4375 -17.3125 6.203125 -16.78125 6.203125 -16.125 C 6.203125 -15.707031 6.296875 -15.347656 6.484375 -15.046875 C 6.671875 -14.742188 6.972656 -14.445312 7.390625 -14.15625 C 7.804688 -13.875 8.785156 -13.367188 10.328125 -12.640625 C 12.367188 -11.660156 13.769531 -10.675781 14.53125 -9.6875 C 15.289062 -8.707031 15.671875 -7.503906 15.671875 -6.078125 Z M 15.671875 -6.078125 "/></g></g></g><g fill="#000000" fill-opacity="1"><g transform="translate(188.661544, 48.476231)"><g><path d="M 12.046875 -18.34375 C 10.304688 -18.34375 8.957031 -17.6875 8 -16.375 C 7.039062 -15.0625 6.5625 -13.226562 6.5625 -10.875 C 6.5625 -6 8.390625 -3.5625 12.046875 -3.5625 C 13.585938 -3.5625 15.453125 -3.945312 17.640625 -4.71875 L 17.640625 -0.828125 C 15.835938 -0.078125 13.828125 0.296875 11.609375 0.296875 C 8.429688 0.296875 6 -0.664062 4.3125 -2.59375 C 2.625 -4.53125 1.78125 -7.300781 1.78125 -10.90625 C 1.78125 -13.1875 2.191406 -15.179688 3.015625 -16.890625 C 3.847656 -18.597656 5.039062 -19.910156 6.59375 -20.828125 C 8.144531 -21.742188 9.960938 -22.203125 12.046875 -22.203125 C 14.171875 -22.203125 16.304688 -21.6875 18.453125 -20.65625 L 16.953125 -16.890625 C 16.140625 -17.273438 15.316406 -17.613281 14.484375 -17.90625 C 13.660156 -18.195312 12.847656 -18.34375 12.046875 -18.34375 Z M 12.046875 -18.34375 "/></g></g></g><g fill="#000000" fill-opacity="1"><g transform="translate(208.197249, 48.476231)"><g><path d="M 7.390625 -12.171875 L 8.890625 -12.171875 C 10.359375 -12.171875 11.441406 -12.414062 12.140625 -12.90625 C 12.835938 -13.394531 13.1875 -14.160156 13.1875 -15.203125 C 13.1875 -16.242188 12.828125 -16.984375 12.109375 -17.421875 C 11.398438 -17.859375 10.296875 -18.078125 8.796875 -18.078125 L 7.390625 -18.078125 Z M 7.390625 -8.390625 L 7.390625 0 L 2.75 0 L 2.75 -21.890625 L 9.125 -21.890625 C 12.101562 -21.890625 14.304688 -21.347656 15.734375 -20.265625 C 17.160156 -19.179688 17.875 -17.535156 17.875 -15.328125 C 17.875 -14.035156 17.519531 -12.890625 16.8125 -11.890625 C 16.101562 -10.890625 15.097656 -10.101562 13.796875 -9.53125 C 17.085938 -4.613281 19.234375 -1.4375 20.234375 0 L 15.09375 0 L 9.859375 -8.390625 Z M 7.390625 -8.390625 "/></g></g></g><g fill="#000000" fill-opacity="1"><g transform="translate(228.436529, 48.476231)"><g><path d="M 2.75 0 L 2.75 -21.890625 L 7.390625 -21.890625 L 7.390625 0 Z M 2.75 0 "/></g></g></g><g fill="#000000" fill-opacity="1"><g transform="translate(238.58611, 48.476231)"><g><path d="M 7.390625 -11.578125 L 8.921875 -11.578125 C 10.347656 -11.578125 11.414062 -11.859375 12.125 -12.421875 C 12.832031 -12.992188 13.1875 -13.816406 13.1875 -14.890625 C 13.1875 -15.984375 12.890625 -16.785156 12.296875 -17.296875 C 11.703125 -17.816406 10.769531 -18.078125 9.5 -18.078125 L 7.390625 -18.078125 Z M 17.875 -15.0625 C 17.875 -12.707031 17.132812 -10.90625 15.65625 -9.65625 C 14.1875 -8.40625 12.097656 -7.78125 9.390625 -7.78125 L 7.390625 -7.78125 L 7.390625 0 L 2.75 0 L 2.75 -21.890625 L 9.75 -21.890625 C 12.394531 -21.890625 14.410156 -21.316406 15.796875 -20.171875 C 17.179688 -19.023438 17.875 -17.320312 17.875 -15.0625 Z M 17.875 -15.0625 "/></g></g></g><g fill="#000000" fill-opacity="1"><g transform="translate(257.837378, 48.476231)"><g><path d="M 11.203125 0 L 6.5625 0 L 6.5625 -18.015625 L 0.609375 -18.015625 L 0.609375 -21.890625 L 17.140625 -21.890625 L 17.140625 -18.015625 L 11.203125 -18.015625 Z M 11.203125 0 "/></g></g></g></svg>